<?xml version="1.0" encoding="utf-8"?>
<!-- Generator: Adobe Illustrator 17.0.0, SVG Export Plug-In . SVG Version: 6.00 Build 0)  -->
<!DOCTYPE svg PUBLIC "-//W3C//DTD SVG 1.1//EN" "http://www.w3.org/Graphics/SVG/1.1/DTD/svg11.dtd">
<svg version="1.1" id="Layer_1" xmlns="http://www.w3.org/2000/svg" xmlns:xlink="http://www.w3.org/1999/xlink" x="0px" y="0px"
	 width="1800px" height="1200px" viewBox="0 0 1800 1200" enable-background="new 0 0 1800 1200" xml:space="preserve">
<g opacity="0.43">
	<title>Layer 1</title>
	<g id="g1006">
		<linearGradient id="path908_1_" gradientUnits="userSpaceOnUse" x1="571.7085" y1="617.9813" x2="1212.1499" y2="617.9813">
			<stop  offset="0" style="stop-color:#BA7802"/>
			<stop  offset="0.1753" style="stop-color:#D19B2D"/>
			<stop  offset="0.3919" style="stop-color:#EBC15D"/>
			<stop  offset="0.5" style="stop-color:#F5D06F"/>
			<stop  offset="0.6081" style="stop-color:#EBC15D"/>
			<stop  offset="0.8247" style="stop-color:#D19B2D"/>
			<stop  offset="1" style="stop-color:#BA7802"/>
		</linearGradient>
		<path id="path908" fill="none" stroke="url(#path908_1_)" stroke-width="8" stroke-miterlimit="10" d="M1208.15,617.981
			c0-170.62-141.577-308.935-316.221-308.935S575.708,447.361,575.708,617.981s141.577,308.935,316.221,308.935
			S1208.15,788.601,1208.15,617.981z"/>
		<linearGradient id="path4042_1_" gradientUnits="userSpaceOnUse" x1="782.4603" y1="618.9063" x2="888.5341" y2="618.9063">
			<stop  offset="0" style="stop-color:#BA7802"/>
			<stop  offset="0.1753" style="stop-color:#D19B2D"/>
			<stop  offset="0.3919" style="stop-color:#EBC15D"/>
			<stop  offset="0.5" style="stop-color:#F5D06F"/>
			<stop  offset="0.6081" style="stop-color:#EBC15D"/>
			<stop  offset="0.8247" style="stop-color:#D19B2D"/>
			<stop  offset="1" style="stop-color:#BA7802"/>
		</linearGradient>
		<path id="path4042" fill="none" stroke="url(#path4042_1_)" stroke-width="8" stroke-miterlimit="10" d="M878.1,310.802
			c0,0-89.772,35.736-91.616,309.565c-1.844,273.829,100.835,306.55,100.835,306.55"/>
		<linearGradient id="path7092_1_" gradientUnits="userSpaceOnUse" x1="877.5967" y1="618.859" x2="1156.8435" y2="618.859">
			<stop  offset="0" style="stop-color:#BA7802"/>
			<stop  offset="0.1753" style="stop-color:#D19B2D"/>
			<stop  offset="0.3919" style="stop-color:#EBC15D"/>
			<stop  offset="0.5" style="stop-color:#F5D06F"/>
			<stop  offset="0.6081" style="stop-color:#EBC15D"/>
			<stop  offset="0.8247" style="stop-color:#D19B2D"/>
			<stop  offset="1" style="stop-color:#BA7802"/>
		</linearGradient>
		<path id="path7092" fill="none" stroke="url(#path7092_1_)" stroke-width="8" stroke-miterlimit="10" d="M878.1,310.802
			c0,0,276.578,35.106,274.734,308.935S887.32,926.916,887.32,926.916"/>
		<linearGradient id="path7093_1_" gradientUnits="userSpaceOnUse" x1="876.7032" y1="618.8625" x2="979.2448" y2="618.8625">
			<stop  offset="0" style="stop-color:#BA7802"/>
			<stop  offset="0.1753" style="stop-color:#D19B2D"/>
			<stop  offset="0.3919" style="stop-color:#EBC15D"/>
			<stop  offset="0.5" style="stop-color:#F5D06F"/>
			<stop  offset="0.6081" style="stop-color:#EBC15D"/>
			<stop  offset="0.8247" style="stop-color:#D19B2D"/>
			<stop  offset="1" style="stop-color:#BA7802"/>
		</linearGradient>
		<path id="path7093" fill="none" stroke="url(#path7093_1_)" stroke-width="8" stroke-miterlimit="10" d="M878.1,310.802
			c0,0,98.963,36.888,97.119,310.717s-87.9,305.398-87.9,305.398"/>
		<linearGradient id="path7094_1_" gradientUnits="userSpaceOnUse" x1="620.9059" y1="618.8554" x2="887.8718" y2="618.8554">
			<stop  offset="0" style="stop-color:#BA7802"/>
			<stop  offset="0.1753" style="stop-color:#D19B2D"/>
			<stop  offset="0.3919" style="stop-color:#EBC15D"/>
			<stop  offset="0.5" style="stop-color:#F5D06F"/>
			<stop  offset="0.6081" style="stop-color:#EBC15D"/>
			<stop  offset="0.8247" style="stop-color:#D19B2D"/>
			<stop  offset="1" style="stop-color:#BA7802"/>
		</linearGradient>
		<path id="path7094" fill="none" stroke="url(#path7094_1_)" stroke-width="8" stroke-miterlimit="10" d="M878.1,310.802
			c0,0-251.341,31.622-253.185,305.451C623.072,890.082,887.32,926.916,887.32,926.916"/>
		<linearGradient id="path7095_1_" gradientUnits="userSpaceOnUse" x1="877.4248" y1="618.843" x2="1064.6554" y2="618.843">
			<stop  offset="0" style="stop-color:#BA7802"/>
			<stop  offset="0.1753" style="stop-color:#D19B2D"/>
			<stop  offset="0.3919" style="stop-color:#EBC15D"/>
			<stop  offset="0.5" style="stop-color:#F5D06F"/>
			<stop  offset="0.6081" style="stop-color:#EBC15D"/>
			<stop  offset="0.8247" style="stop-color:#D19B2D"/>
			<stop  offset="1" style="stop-color:#BA7802"/>
		</linearGradient>
		<path id="path7095" fill="none" stroke="url(#path7095_1_)" stroke-width="8" stroke-miterlimit="10" d="M878.1,310.802
			c0,0,184.385,31.596,182.541,305.424c-1.844,273.829-173.322,310.69-173.322,310.69"/>
		<linearGradient id="path7096_1_" gradientUnits="userSpaceOnUse" x1="686.3173" y1="618.858" x2="888.0251" y2="618.858">
			<stop  offset="0" style="stop-color:#BA7802"/>
			<stop  offset="0.1753" style="stop-color:#D19B2D"/>
			<stop  offset="0.3919" style="stop-color:#EBC15D"/>
			<stop  offset="0.5" style="stop-color:#F5D06F"/>
			<stop  offset="0.6081" style="stop-color:#EBC15D"/>
			<stop  offset="0.8247" style="stop-color:#D19B2D"/>
			<stop  offset="1" style="stop-color:#BA7802"/>
		</linearGradient>
		<path id="path7096" fill="none" stroke="url(#path7096_1_)" stroke-width="8" stroke-miterlimit="10" d="M878.1,310.802
			c0,0-185.926,32.828-187.77,306.657s196.99,309.458,196.99,309.458"/>
		<linearGradient id="path7097_1_" gradientUnits="userSpaceOnUse" x1="874.1859" y1="618.7926" x2="891.2596" y2="618.7926">
			<stop  offset="0" style="stop-color:#BA7802"/>
			<stop  offset="0.1753" style="stop-color:#D19B2D"/>
			<stop  offset="0.3919" style="stop-color:#EBC15D"/>
			<stop  offset="0.5" style="stop-color:#F5D06F"/>
			<stop  offset="0.6081" style="stop-color:#EBC15D"/>
			<stop  offset="0.8247" style="stop-color:#D19B2D"/>
			<stop  offset="1" style="stop-color:#BA7802"/>
		</linearGradient>
		<path id="path7097" fill="none" stroke="url(#path7097_1_)" stroke-width="8" stroke-miterlimit="10" d="M878.1,310.802
			c0,0,5.532,26.33,3.688,300.158c-1.844,273.829,5.532,315.956,5.532,315.956"/>
		<linearGradient id="path7107_1_" gradientUnits="userSpaceOnUse" x1="760.063" y1="357.1877" x2="1030.4176" y2="357.1877">
			<stop  offset="0" style="stop-color:#BA7802"/>
			<stop  offset="0.1753" style="stop-color:#D19B2D"/>
			<stop  offset="0.3919" style="stop-color:#EBC15D"/>
			<stop  offset="0.5" style="stop-color:#F5D06F"/>
			<stop  offset="0.6081" style="stop-color:#EBC15D"/>
			<stop  offset="0.8247" style="stop-color:#D19B2D"/>
			<stop  offset="1" style="stop-color:#BA7802"/>
		</linearGradient>
		<path id="path7107" fill="none" stroke="url(#path7107_1_)" stroke-width="8" stroke-miterlimit="10" d="M763.992,335.376
			c0,0,7.692,40.372,119.218,40.372c111.526,0,144.215-36.861,144.215-36.861"/>
		<linearGradient id="path7108_1_" gradientUnits="userSpaceOnUse" x1="657.8682" y1="439.8913" x2="1129.9178" y2="439.8913">
			<stop  offset="0" style="stop-color:#BA7802"/>
			<stop  offset="0.1753" style="stop-color:#D19B2D"/>
			<stop  offset="0.3919" style="stop-color:#EBC15D"/>
			<stop  offset="0.5" style="stop-color:#F5D06F"/>
			<stop  offset="0.6081" style="stop-color:#EBC15D"/>
			<stop  offset="0.8247" style="stop-color:#D19B2D"/>
			<stop  offset="1" style="stop-color:#BA7802"/>
		</linearGradient>
		<path id="path7108" fill="none" stroke="url(#path7108_1_)" stroke-width="8" stroke-miterlimit="10" d="M661.854,407.344
			c0,0,5.254,61.436,216.455,61.436c211.201,0,251.071-57.925,247.384-56.17"/>
		<linearGradient id="path7109_1_" gradientUnits="userSpaceOnUse" x1="604.9699" y1="520.2159" x2="1180.1913" y2="520.2159">
			<stop  offset="0" style="stop-color:#BA7802"/>
			<stop  offset="0.1753" style="stop-color:#D19B2D"/>
			<stop  offset="0.3919" style="stop-color:#EBC15D"/>
			<stop  offset="0.5" style="stop-color:#F5D06F"/>
			<stop  offset="0.6081" style="stop-color:#EBC15D"/>
			<stop  offset="0.8247" style="stop-color:#D19B2D"/>
			<stop  offset="1" style="stop-color:#BA7802"/>
		</linearGradient>
		<path id="path7109" fill="none" stroke="url(#path7109_1_)" stroke-width="8" stroke-miterlimit="10" d="M608.792,479.312
			c0,0,24.393,78.989,271.156,78.989s296.963-71.968,296.963-71.968"/>
		<linearGradient id="path7110_1_" gradientUnits="userSpaceOnUse" x1="576.0948" y1="609.2711" x2="1207.3368" y2="609.2711">
			<stop  offset="0" style="stop-color:#BA7802"/>
			<stop  offset="0.1753" style="stop-color:#D19B2D"/>
			<stop  offset="0.3919" style="stop-color:#EBC15D"/>
			<stop  offset="0.5" style="stop-color:#F5D06F"/>
			<stop  offset="0.6081" style="stop-color:#EBC15D"/>
			<stop  offset="0.8247" style="stop-color:#D19B2D"/>
			<stop  offset="1" style="stop-color:#BA7802"/>
		</linearGradient>
		<path id="path7110" fill="none" stroke="url(#path7110_1_)" stroke-width="8" stroke-miterlimit="10" d="M579.492,575.854
			c0,0,40.371,64.947,304.916,64.947c264.545,0,319.958-61.436,319.958-61.436"/>
		<linearGradient id="path7111_1_" gradientUnits="userSpaceOnUse" x1="575.9536" y1="685.7531" x2="1209.7218" y2="685.7531">
			<stop  offset="0" style="stop-color:#BA7802"/>
			<stop  offset="0.1753" style="stop-color:#D19B2D"/>
			<stop  offset="0.3919" style="stop-color:#EBC15D"/>
			<stop  offset="0.5" style="stop-color:#F5D06F"/>
			<stop  offset="0.6081" style="stop-color:#EBC15D"/>
			<stop  offset="0.8247" style="stop-color:#D19B2D"/>
			<stop  offset="1" style="stop-color:#BA7802"/>
		</linearGradient>
		<path id="path7111" fill="none" stroke="url(#path7111_1_)" stroke-width="8" stroke-miterlimit="10" d="M579.495,647.822
			c0,0,38.726,73.723,304.227,73.723s322.904-70.212,322.904-70.212"/>
		<linearGradient id="path7112_1_" gradientUnits="userSpaceOnUse" x1="594.2413" y1="760.3208" x2="1189.6184" y2="760.3208">
			<stop  offset="0" style="stop-color:#BA7802"/>
			<stop  offset="0.1753" style="stop-color:#D19B2D"/>
			<stop  offset="0.3919" style="stop-color:#EBC15D"/>
			<stop  offset="0.5" style="stop-color:#F5D06F"/>
			<stop  offset="0.6081" style="stop-color:#EBC15D"/>
			<stop  offset="0.8247" style="stop-color:#D19B2D"/>
			<stop  offset="1" style="stop-color:#BA7802"/>
		</linearGradient>
		<path id="path7112" fill="none" stroke="url(#path7112_1_)" stroke-width="8" stroke-miterlimit="10" d="M597.747,725.055
			c0,0,37.614,68.457,286.872,68.457s301.892-64.947,301.892-64.947"/>
		<linearGradient id="path7113_1_" gradientUnits="userSpaceOnUse" x1="634.3774" y1="831.4434" x2="1147.1854" y2="831.4434">
			<stop  offset="0" style="stop-color:#BA7802"/>
			<stop  offset="0.1753" style="stop-color:#D19B2D"/>
			<stop  offset="0.3919" style="stop-color:#EBC15D"/>
			<stop  offset="0.5" style="stop-color:#F5D06F"/>
			<stop  offset="0.6081" style="stop-color:#EBC15D"/>
			<stop  offset="0.8247" style="stop-color:#D19B2D"/>
			<stop  offset="1" style="stop-color:#BA7802"/>
		</linearGradient>
		<path id="path7113" fill="none" stroke="url(#path7113_1_)" stroke-width="8" stroke-miterlimit="10" d="M637.918,800.534
			c0,0,31.374,59.681,245.668,59.681s260.51-56.17,260.51-56.17"/>
	</g>
</g>
<linearGradient id="SVGID_1_" gradientUnits="userSpaceOnUse" x1="649.496" y1="483.197" x2="1132.5112" y2="483.197">
	<stop  offset="0" style="stop-color:#BA7802"/>
	<stop  offset="0.1753" style="stop-color:#D19B2D"/>
	<stop  offset="0.3919" style="stop-color:#EBC15D"/>
	<stop  offset="0.5" style="stop-color:#F5D06F"/>
	<stop  offset="0.6081" style="stop-color:#EBC15D"/>
	<stop  offset="0.8247" style="stop-color:#D19B2D"/>
	<stop  offset="1" style="stop-color:#BA7802"/>
</linearGradient>
<linearGradient id="SVGID_2_" gradientUnits="userSpaceOnUse" x1="619.9516" y1="483.197" x2="1162.0697" y2="483.197">
	<stop  offset="0" style="stop-color:#BA7802"/>
	<stop  offset="0.1753" style="stop-color:#D19B2D"/>
	<stop  offset="0.3919" style="stop-color:#EBC15D"/>
	<stop  offset="0.5" style="stop-color:#F5D06F"/>
	<stop  offset="0.6081" style="stop-color:#EBC15D"/>
	<stop  offset="0.8247" style="stop-color:#D19B2D"/>
	<stop  offset="1" style="stop-color:#BA7802"/>
</linearGradient>
<path fill="url(#SVGID_1_)" stroke="url(#SVGID_2_)" stroke-width="25" stroke-miterlimit="10" d="M864.712,314.271v371.833h36.155
	V314.056c66.79,3.516,134.062,28.695,182.456,68.665c16.396,0.056,32.792,0.124,49.188,0.199
	c-61.04-63.272-146.705-102.63-241.568-102.63c-94.798,0-180.413,39.307-241.447,102.509c16.815-0.056,33.268-0.105,49.153-0.147
	C746.094,343.493,799.469,318.534,864.712,314.271z"/>
<linearGradient id="SVGID_3_" gradientUnits="userSpaceOnUse" x1="557.9428" y1="676.7689" x2="1220.5271" y2="676.7689">
	<stop  offset="0" style="stop-color:#BA7802"/>
	<stop  offset="0.1753" style="stop-color:#D19B2D"/>
	<stop  offset="0.3919" style="stop-color:#EBC15D"/>
	<stop  offset="0.5" style="stop-color:#F5D06F"/>
	<stop  offset="0.6081" style="stop-color:#EBC15D"/>
	<stop  offset="0.8247" style="stop-color:#D19B2D"/>
	<stop  offset="1" style="stop-color:#BA7802"/>
</linearGradient>
<linearGradient id="SVGID_4_" gradientUnits="userSpaceOnUse" x1="545.4428" y1="677.8715" x2="1233.0271" y2="677.8715">
	<stop  offset="0" style="stop-color:#BA7802"/>
	<stop  offset="0.1753" style="stop-color:#D19B2D"/>
	<stop  offset="0.3919" style="stop-color:#EBC15D"/>
	<stop  offset="0.5" style="stop-color:#F5D06F"/>
	<stop  offset="0.6081" style="stop-color:#EBC15D"/>
	<stop  offset="0.8247" style="stop-color:#D19B2D"/>
	<stop  offset="1" style="stop-color:#BA7802"/>
</linearGradient>
<path fill="url(#SVGID_3_)" stroke="url(#SVGID_4_)" stroke-width="25" stroke-miterlimit="10" d="M1164.338,428.852
	c-13.51,0.074-27.021,0.138-40.531,0.197c39.974,51.429,63.826,116.324,63.826,186.864c0,113.064-61.288,211.611-152.03,263.459
	L888.12,738.311l-2.51-2.539l-3.111-3.111L759.533,884.956c-104.93-46.842-168.687-145.418-168.687-269.042
	c0-70.501,23.822-135.363,63.754-186.779c-13.512-0.053-27.023-0.113-40.534-0.179c-35.441,53.429-56.124,117.746-56.124,186.958
	c0,146.084,82.634,262.665,211.243,308.771L884.92,783.456l145.19,136.301c112.524-53.633,190.417-169.521,190.417-303.843
	C1220.527,546.657,1199.819,482.302,1164.338,428.852z"/>
</svg>
